<?xml version="1.0" encoding="iso-8859-1"?>
<!-- Generator: Adobe Illustrator 19.0.0, SVG Export Plug-In . SVG Version: 6.00 Build 0)  -->
<svg version="1.1" id="Capa_1" xmlns="http://www.w3.org/2000/svg" xmlns:xlink="http://www.w3.org/1999/xlink" x="0px" y="0px"
	 viewBox="0 0 511.999 511.999" style="enable-background:new 0 0 511.999 511.999;" xml:space="preserve">
<rect x="382.738" y="22.235" transform="matrix(-0.7071 -0.7071 0.7071 -0.7071 615.0847 468.9558)" style="fill:#EAEAE4;" width="43.857" height="169.709"/>
<rect x="385.951" y="14.477" transform="matrix(-0.7071 -0.7071 0.7071 -0.7071 607.3385 450.2303)" style="fill:#D1D1CB;" width="21.928" height="169.709"/>
<path style="fill:#EFBC4B;" d="M380.743,227.505L206.248,402l-81.921,81.921l-12.108,12.108c-9.68,9.681-25.364,9.67-35.044,0
	l-61.443-61.443c-9.67-9.67-9.68-25.364,0-35.044l268.534-268.524c9.67-9.68,25.364-9.67,35.034,0l61.443,61.443
	C390.413,202.131,390.423,217.825,380.743,227.505z"/>
<g>
	<path style="fill:#D3A13D;" d="M206.248,402l-81.921,81.921c-8.687-10.152-13.921-23.325-13.921-37.718
		c0-32.104,26.02-58.124,58.124-58.124C182.933,388.078,196.107,393.313,206.248,402z"/>
	<path style="fill:#D3A13D;" d="M29.518,413.324l268.527-268.527c9.679-9.679,25.369-9.671,35.041,0l-13.783-13.782
		c-9.671-9.671-25.362-9.679-35.041,0L15.735,399.542c-9.679,9.679-9.671,25.369,0,35.041l13.783,13.783
		C19.847,438.695,19.839,423.004,29.518,413.324z"/>
</g>
<g>
	<path style="fill:#455256;" d="M380.747,227.5l-7.657,7.657l-96.485-96.485l7.657-7.657c9.679-9.679,25.369-9.671,35.041,0
		l61.444,61.444C390.418,202.131,390.425,217.821,380.747,227.5z"/>
	
		<rect x="433.052" y="29.086" transform="matrix(-0.7071 -0.7071 0.7071 -0.7071 770.3767 404.6396)" style="fill:#455256;" width="71.881" height="27.366"/>
</g>
<circle style="fill:#E22342;" cx="207.019" cy="446.194" r="58.119"/>
<path style="fill:#C9183A;" d="M185.695,446.197c0-25.666,16.644-47.431,39.723-55.13c-5.784-1.929-11.965-2.989-18.396-2.989
	c-32.098,0-58.12,26.021-58.12,58.119s26.021,58.119,58.12,58.119c6.432,0,12.613-1.06,18.396-2.989
	C202.339,493.629,185.695,471.863,185.695,446.197z"/>
<path d="M509.512,53.075L458.688,2.251C457.245,0.809,455.292,0,453.254,0c-2.038,0-3.991,0.809-5.433,2.251L428.47,21.601
	c-3,3-3,7.865,0,10.866l4.474,4.474l-98.423,98.424l-10.732-10.732c-12.127-12.127-31.87-12.13-44.015,0l-67.664,67.666
	c-3,3-3,7.865,0,10.866l0,0c3,3,7.865,3,10.866,0l53.626-53.629l85.623,85.622L216.314,381.059
	c-3.055-0.434-6.157-0.664-9.292-0.664c-36.284,0-65.802,29.519-65.802,65.802c0,3.153,0.237,6.251,0.668,9.287l-36.057,36.057
	c-3.336,3.342-7.911,4.997-12.692,4.541c-3.742-0.358-7.201-2.157-9.86-4.816L20.56,428.547c-2.953-2.953-4.84-6.886-4.949-11.06
	c-0.114-4.365,1.534-8.486,4.613-11.561L197.26,228.883c3-3,3-7.865,0-10.866l0,0c-3-3-7.865-3-10.866,0L9.361,395.058
	c-6.144,6.136-9.405,14.389-9.104,23.116c0.279,8.06,3.854,15.657,9.557,21.359l62.871,62.871c5.88,5.88,13.697,9.118,22.011,9.118
	c8.315,0,16.13-3.24,22.003-9.119l29.985-29.985c10.152,23.27,33.37,39.581,60.337,39.581c36.284,0,65.802-29.519,65.802-65.802
	c0-3.039-0.208-6.066-0.62-9.058c-0.628-4.559-5.2-7.477-9.637-6.256l-0.006,0.002c-3.706,1.019-6.087,4.62-5.568,8.429
	c0.309,2.272,0.465,4.572,0.465,6.883c0,29.091-24.757,52.509-54.309,50.29c-24.659-1.851-44.567-21.759-46.417-46.417
	c-2.218-29.552,21.2-54.309,50.29-54.309c14.514,0,28.17,6.218,37.681,16.908c2.578,2.897,6.874,3.491,10.087,1.32l0,0
	c3.877-2.619,4.501-8.04,1.39-11.536c-6.399-7.19-14.239-12.826-22.927-16.603L387.13,231.982
	c12.126-12.14,12.125-31.884-0.003-44.011l-10.73-10.73l98.423-98.422l4.472,4.474c1.501,1.501,3.467,2.251,5.433,2.251
	c1.966,0,3.933-0.75,5.433-2.251l19.222-19.221c0.757-0.757,1.403-1.635,1.804-2.628C512.391,58.458,511.642,55.204,509.512,53.075z
	 M416.256,75.359l7.462,32.831l-21.486,21.486l-7.462-32.831L416.256,75.359z M376.264,221.119l-3.173,3.173l-85.623-85.623
	l3.169-3.169c6.148-6.143,16.147-6.142,22.288-0.003l16.15,16.15c0.005,0.005,0.009,0.01,0.014,0.015l31.01,31.011
	c0.007,0.007,0.014,0.012,0.022,0.019l16.143,16.143C382.403,204.976,382.402,214.974,376.264,221.119z M345.387,146.229
	l36.544-36.544l7.462,32.831l-23.859,23.859L345.387,146.229z M436.557,95.35l-7.462-32.831l14.714-14.714l3.483,3.483
	l16.663,16.664L436.557,95.35z M484.728,66.992l-4.464-4.464c-0.003-0.003-0.006-0.006-0.009-0.01l-26.253-26.253l-9.232-9.232
	l8.485-8.485l39.959,39.958L484.728,66.992z"/>
<g>
</g>
<g>
</g>
<g>
</g>
<g>
</g>
<g>
</g>
<g>
</g>
<g>
</g>
<g>
</g>
<g>
</g>
<g>
</g>
<g>
</g>
<g>
</g>
<g>
</g>
<g>
</g>
<g>
</g>
</svg>
