<?xml version="1.0" encoding="iso-8859-1"?>
<!-- Generator: Adobe Illustrator 19.0.0, SVG Export Plug-In . SVG Version: 6.00 Build 0)  -->
<svg version="1.1" id="Capa_1" xmlns="http://www.w3.org/2000/svg" xmlns:xlink="http://www.w3.org/1999/xlink" x="0px" y="0px"
	 viewBox="0 0 511.999 511.999" style="enable-background:new 0 0 511.999 511.999;" xml:space="preserve">
<path style="fill:#FFB69E;" d="M219.897,191.583l-82.591-20.423c-12.171-3.01-19.599-15.316-16.589-27.487
	c3.009-12.172,15.318-19.598,27.487-16.589l63.936,15.809l29.298-67.723c4.979-11.507,18.344-16.799,29.85-11.822
	c11.507,4.979,16.8,18.343,11.822,29.85l-36.929,85.36C241.793,188.705,230.699,194.255,219.897,191.583z"/>
<path style="fill:#F5A287;" d="M174.095,317.741H53.844V158.09c0-17.554,14.23-31.784,31.784-31.784h56.681
	c17.554,0,31.784,14.23,31.784,31.784L174.095,317.741L174.095,317.741z"/>
<g>
	<circle style="fill:#FFB69E;" cx="113.965" cy="64.207" r="47.052"/>
	<path style="fill:#FFB69E;" d="M206.881,309.065l-87.846-22.578c-7.363-1.893-13.29-7.344-15.79-14.525L66.903,167.543
		c-4.122-11.842,2.137-24.781,13.979-28.903c11.839-4.129,24.781,2.137,28.903,13.979l32.342,92.923l76.057,19.549
		c12.143,3.122,19.458,15.495,16.336,27.639C231.404,304.857,219.036,312.19,206.881,309.065z"/>
</g>
<path style="fill:#A03C19;" d="M454.615,322.941L183.209,62.395c-7.236-6.947-7.47-18.443-0.524-25.679
	c6.947-7.236,18.443-7.471,25.679-0.524L479.77,296.737c7.236,6.947,7.47,18.443,0.524,25.679
	C473.351,329.649,461.853,329.889,454.615,322.941z"/>
<path style="fill:#41B4E6;" d="M183.434,354.064H18.162C8.131,354.064,0,345.933,0,335.903c0-10.03,8.131-18.162,18.162-18.162
	h165.272c10.031,0,18.162,8.131,18.162,18.162C201.596,345.934,193.465,354.064,183.434,354.064z"/>
<path style="fill:#73C8F0;" d="M317.668,423.632H152.065c-10.031,0-18.162-8.131-18.162-18.162s8.131-18.162,18.162-18.162h165.604
	c10.031,0,18.162,8.131,18.162,18.162S327.699,423.632,317.668,423.632z"/>
<path style="fill:#41B4E6;" d="M473.859,494.844H57.949c-10.031,0-18.162-8.131-18.162-18.162c0-10.031,8.131-18.162,18.162-18.162
	h415.91c10.031,0,18.162,8.131,18.162,18.162C492.022,486.712,483.89,494.844,473.859,494.844z"/>
<path style="fill:#73C8F0;" d="M493.838,335.693H336.992c-10.031,0-18.162-8.131-18.162-18.162s8.132-18.162,18.162-18.162h156.846
	c10.031,0,18.162,8.131,18.162,18.162C512,327.562,503.869,335.693,493.838,335.693z"/>
<g>
</g>
<g>
</g>
<g>
</g>
<g>
</g>
<g>
</g>
<g>
</g>
<g>
</g>
<g>
</g>
<g>
</g>
<g>
</g>
<g>
</g>
<g>
</g>
<g>
</g>
<g>
</g>
<g>
</g>
</svg>
